PathFileType	4	(X/Y/Z)	C:/Users/opensim2020/Desktop/walking_exp_matlab/subject02_walking11_straight_03.trc																																																																																																																												
DataRate	CameraRate	NumFrames	NumMarkers	Units	OrigDataRate	OrigDataStartFrame	OrigNumFrames																																																																																																																								
100	100	5	42	mm	100	2411	250																																																																																																																								
Frame#	Time	LFHD			RFHD			LBHD			RBHD			C7			T10			CLAV			STRN			RBAK			LSHO			LUPA			LELB			LFRM			LWRA			LWRB			LFIN			RSHO			RUPA			RELB			RFRM			RWRA			RWRB			RFIN			LASI			RASI			LPSI			RPSI			LTHI			LKNE			LTIB			LANK			LHEE			LTOE			RTHI			RKNE			RTIB			RANK			RHEE			RTOE			*39			*40			*41		
		X1	Y1	Z1	X2	Y2	Z2	X3	Y3	Z3	X4	Y4	Z4	X5	Y5	Z5	X6	Y6	Z6	X7	Y7	Z7	X8	Y8	Z8	X9	Y9	Z9	X10	Y10	Z10	X11	Y11	Z11	X12	Y12	Z12	X13	Y13	Z13	X14	Y14	Z14	X15	Y15	Z15	X16	Y16	Z16	X17	Y17	Z17	X18	Y18	Z18	X19	Y19	Z19	X20	Y20	Z20	X21	Y21	Z21	X22	Y22	Z22	X23	Y23	Z23	X24	Y24	Z24	X25	Y25	Z25	X26	Y26	Z26	X27	Y27	Z27	X28	Y28	Z28	X29	Y29	Z29	X30	Y30	Z30	X31	Y31	Z31	X32	Y32	Z32	X33	Y33	Z33	X34	Y34	Z34	X35	Y35	Z35	X36	Y36	Z36	X37	Y37	Z37	X38	Y38	Z38	X39	Y39	Z39	X40	Y40	Z40	X41	Y41	Z41	X42	Y42	Z42
																																																																																																																															
32	0.31	-690.0611	1756.37903	1468.51465	-690.23712	1734.27478	1611.32715	-796.65808	1651.63159	1453.78149	-808.98804	1624.93542	1594.10461	-828.6153	1524.06665	1519.54419	-890.9035	1254.18188	1528.10803	-690.18695	1456.78345	1508.40039	-644.78516	1280.07031	1512.36462	-891.26404	1356.07764	1584.35779	-753.11786	1505.48608	1339.34839	-766.73688	1305.65613	1255.44751	-772.55103	1165.05969	1245.7395	-768.89197	1034.98694	1227.8291	-722.05109	904.79559	1257.771	-763.85455	911.90125	1221.00989	-750.13031	846.11853	1217.44556	-747.7439	1484.59314	1705.62354	-780.10101	1291.68982	1788.50537	-767.86377	1146.16931	1803.34155	-739.97821	1032.15161	1828.88062	-686.8479	906.47345	1820.01233	-736.91125	902.38501	1844.30859	-698.73669	841.95795	1855.83423	-682.15961	982.0401	1380.21106	-655.85382	976.40741	1635.03784	-881.48718	1029.93542	1481.46313	-874.3775	1034.47278	1596.64319	-723.38177	674.27765	1314.75342	-725.44476	488.92664	1326.87463	-865.40216	369.32513	1348.60852	-983.07379	181.49989	1380.27173	-1011.45679	169.0909	1441.72974	-893.11871	67.0202	1326.16553	-711.48883	674.69824	1707.2113	-706.185	464.09952	1666.48926	-748.06573	279.58389	1677.16357	-773.45905	87.72276	1640.0011	-812.46881	33.7878	1587.33337	-621.44586	34.29398	1650.39001	-807.17987	1791.7356	1556.01721	2845.14868	1034.26465	-3360.36353	NaN	NaN	NaN
33	0.32	-682.37543	1756.94592	1469.31335	-682.42242	1735.17468	1612.19409	-788.91919	1652.07263	1454.89368	-801.13641	1625.73083	1595.29395	-820.85339	1524.96216	1521.52832	-883.66431	1255.19312	1530.76978	-682.61017	1457.32007	1509.6123	-637.21375	1280.70691	1513.90271	-883.41498	1357.5094	1587.42358	-746.51514	1505.76257	1340.91248	-763.45605	1306.46338	1257.12183	-769.94293	1165.68933	1247.53064	-768.1087	1035.46289	1229.14099	-722.75464	904.72083	1257.92883	-764.59344	912.35492	1221.79236	-751.91602	846.56982	1217.90808	-738.59009	1485.90381	1707.0509	-769.16516	1293.21301	1790.8595	-756.02991	1147.69678	1806.15466	-726.74731	1033.82166	1831.05432	-672.27533	908.84222	1821.98669	-722.09131	904.19287	1846.81592	-682.96515	844.30389	1857.99243	-675.29889	983.75989	1382.03308	-649.79401	976.86108	1636.29846	-874.49377	1030.97949	1483.03918	-867.42828	1034.7644	1598.18372	-712.33472	676.25049	1315.15698	-711.17322	490.56668	1327.69397	-848.82214	367.83469	1350.5625	-961.19519	176.82823	1382.70825	-988.82922	162.96532	1444.2533	-867.78021	65.91891	1327.89575	-707.85632	674.42596	1707.82532	-704.41998	463.65973	1667.16431	-747.00592	279.53632	1677.37427	-773.51099	87.64371	1639.73315	-812.50568	34.07616	1587.17139	-621.51465	34.11755	1650.34509	-799.49121	1792.44971	1556.85254	2846.00244	1034.33923	-3357.53052	NaN	NaN	NaN
34	0.33	-674.72089	1757.47473	1469.9856	-674.63916	1736.01917	1612.89075	-781.26044	1652.48267	1455.91809	-793.27448	1626.4303	1596.38293	-813.18158	1525.76099	1523.37354	-876.46167	1256.07861	1533.24121	-675.11804	1457.82202	1510.70813	-630.79645	1280.8656	1514.68103	-875.68378	1358.3418	1589.87109	-740.02625	1505.9967	1342.36987	-758.15277	1306.48059	1258.95483	-767.5954	1166.32446	1249.10657	-767.23163	1036.08655	1230.66846	-722.96204	904.82013	1258.39478	-765.45142	913.09863	1222.56421	-753.48871	846.93365	1218.25391	-729.56915	1487.2052	1708.39648	-758.27039	1294.64502	1793.19556	-743.99048	1149.26526	1808.73352	-713.33258	1035.63538	1833.3501	-657.62317	911.03912	1823.68628	-707.21985	906.0636	1849.21057	-667.27869	846.742	1860.12354	-668.34344	985.35162	1383.81506	-642.87079	977.62732	1638.07043	-867.4574	1031.94409	1484.29724	-860.50208	1034.97375	1599.53479	-701.99286	678.54681	1315.35608	-697.19019	492.04691	1328.45801	-832.01318	365.69434	1351.99646	-938.62408	171.44992	1384.68799	-965.62451	156.39531	1446.34753	-841.23773	64.11519	1329.48376	-704.25476	674.27368	1708.73962	-702.67719	463.54468	1667.61768	-746.23615	279.49377	1677.63721	-773.26044	87.78186	1639.89124	-812.53253	34.1787	1587.01428	-621.55444	34.05718	1650.41858	-791.77924	1793.09607	1557.54553	2845.27881	1034.19507	-3360.31567	NaN	NaN	NaN
35	0.34	-667.10614	1757.87158	1470.56165	-666.83746	1736.72302	1613.51367	-773.56769	1652.77075	1456.8429	-785.41083	1627.07727	1597.35706	-805.60468	1526.41553	1525.17908	-869.28619	1256.8385	1535.55493	-667.64172	1458.2373	1511.76489	-623.17108	1281.39429	1516.2572	-867.55457	1359.16431	1592.49084	-733.55157	1506.10474	1343.72034	-754.57245	1306.97107	1260.37817	-765.03729	1166.90881	1250.66382	-766.6391	1036.79993	1231.42505	-723.06287	905.00494	1258.69592	-765.9848	913.63361	1223.33276	-754.4469	847.2547	1219.04651	-720.72791	1488.43372	1709.55481	-747.36414	1296.00439	1795.30725	-731.97375	1150.76489	1811.19055	-699.69263	1037.51843	1835.65759	-643.06555	913.4184	1825.27185	-692.20624	907.95581	1851.4928	-651.43304	849.10101	1862.16333	-661.05005	987.17072	1385.68518	-635.3407	978.48444	1640.20618	-860.29486	1032.79309	1485.43079	-853.63123	1035.16382	1600.70544	-691.49207	680.49872	1315.70471	-683.76294	493.45663	1329.09448	-814.96857	363.01859	1352.89722	-915.28308	165.33673	1386.18921	-942.25244	149.52264	1447.48572	-813.6283	62.21209	1331.02393	-700.30548	673.98132	1709.45776	-700.87244	463.50934	1668.45032	-745.75562	279.50415	1677.86768	-773.14734	87.84834	1639.85596	-812.5603	34.28476	1586.92383	-621.66974	34.02981	1650.54272	-784.06049	1793.59802	1558.17529	2845.22656	1034.20813	-3360.29248	NaN	NaN	NaN
36	0.35	-659.41595	1758.21912	1471.07141	-659.06635	1737.33228	1614.03271	-765.88861	1653.06995	1457.64099	-777.56158	1627.63306	1598.21497	-798.10553	1526.96484	1526.88489	-862.18671	1257.50085	1537.73718	-660.26831	1458.62463	1512.67883	-616.19586	1281.66284	1517.35071	-860.02496	1360.13867	1594.98596	-727.13654	1506.09448	1344.96497	-749.92273	1307.14185	1261.94116	-762.0816	1167.38	1252.25903	-765.38831	1037.40674	1232.49561	-723.44934	905.02502	1258.63806	-766.74261	914.2605	1223.91638	-755.63153	847.82294	1219.16235	-712.07788	1489.51245	1710.61292	-736.60114	1297.31433	1797.31921	-719.91125	1152.10181	1813.43884	-686.15326	1039.26819	1837.70508	-628.40546	915.79425	1826.64233	-677.18799	909.77405	1853.6001	-635.5672	851.48175	1863.93225	-653.88971	988.85541	1387.88965	-628.60803	978.75403	1641.86877	-853.21198	1033.62341	1486.46973	-846.7674	1035.26636	1601.74133	-681.57428	682.53735	1315.9624	-670.59814	494.70584	1329.75757	-797.73895	359.82553	1353.42126	-891.13757	158.56674	1387.17017	-917.29584	141.53621	1448.67017	-785.64313	60.08976	1331.85437	-696.32843	673.75848	1710.0946	-699.09869	463.06723	1668.98181	-745.23767	279.57803	1678.06824	-773.05231	87.91931	1639.77673	-812.50342	34.3432	1586.79688	-621.65863	33.98304	1650.72412	-776.34052	1794.02869	1558.71741	2845.30127	1034.17468	-3360.24219	NaN	NaN	NaN
